<?xml version="1.0" encoding="UTF-8"?>
<svg width="110px" height="100px" viewBox="0 0 110 100" version="1.1" xmlns="http://www.w3.org/2000/svg" xmlns:xlink="http://www.w3.org/1999/xlink">
    <!-- Generator: Sketch 55.2 (78181) - https://sketchapp.com -->
    <title>Group 23</title>
    <desc>Created with Sketch.</desc>
    <defs>
        <linearGradient x1="5.76921409%" y1="94.8145781%" x2="93.8461623%" y2="5.5684606%" id="linearGradient-1">
            <stop stop-color="#070135" offset="0%"></stop>
            <stop stop-color="#612D50" offset="100%"></stop>
        </linearGradient>
    </defs>
    <g id="Page-1" stroke="none" stroke-width="1" fill="none" fill-rule="evenodd">
        <g id="Desktop" transform="translate(-9.000000, -428.000000)">
            <g id="Group-23" transform="translate(9.000000, 428.000000)">
                <rect id="Rectangle" fill="#FFFFFF" x="0" y="0" width="110" height="100"></rect>
                <g id="Group-11" transform="translate(31.000000, 8.000000)">
                    <circle id="Oval" fill="#E5F4F3" cx="24" cy="24" r="24"></circle>
                    <g id="Boostrap_logo" transform="translate(10.000000, 10.000000)" fill-rule="nonzero">
                        <rect id="rect3050" fill="url(#linearGradient-1)" x="0" y="0" width="28" height="28"></rect>
                        <g id="text3836" transform="translate(7.000000, 6.000000)" fill="#FFFFFF">
                            <path d="M6.79992529,6.57297214 C7.4895479,6.57297214 8.01245536,6.4214248 8.3686498,6.11829833 C8.72482304,5.81519305 8.9029245,5.36809692 8.9029245,4.77700782 C8.9029245,4.19352184 8.72482304,3.75021456 8.3686498,3.44708596 C8.01245536,3.13640512 7.4895479,2.9810435 6.79992529,2.9810435 L4.37863513,2.9810435 L4.37863513,6.57297214 L6.79992529,6.57297214 M6.94770353,13.9955329 C7.82678635,13.9955329 8.48610271,13.8098775 8.92565896,13.4385561 C9.37277216,13.0672431 9.59634679,12.5064775 9.59634679,11.7562612 C9.59634679,11.0212089 9.37656124,10.4718119 8.93702831,10.108066 C8.49747206,9.73675522 7.8343645,9.55108922 6.94770353,9.55108922 L4.37863513,9.55108922 L4.37863513,13.9955329 L6.94770353,13.9955329 M11.0172909,7.89152747 C11.9569969,8.16434109 12.6845187,8.66827197 13.199865,9.40332013 C13.7151774,10.1383852 13.9728579,11.0401552 13.9728579,12.1086342 C13.9728579,13.745465 13.4196209,14.9655062 12.3131934,15.768762 C11.2067384,16.5720199 9.52433948,16.9736499 7.2659966,16.9736499 L0.00212188126,16.9736499 L0.00212188126,0.00292641723 L6.57257431,0.00292641723 C8.92943743,0.00292641723 10.6345708,0.359105169 11.6879788,1.07141179 C12.7489352,1.78375021 13.2794208,2.92422359 13.2794377,4.49283616 C13.2794208,5.31883985 13.0861736,6.02358575 12.699692,6.60707172 C12.3131807,7.18300333 11.7523804,7.61115525 11.0172909,7.89152747" id="path3841"></path>
                        </g>
                    </g>
                </g>
                <text id="Bootstrap" font-family="AdobeKaitiStd-Regular, Adobe Kaiti Std" font-size="14" font-weight="normal" fill="#1F1E1E">
                    <tspan x="24.725" y="86">Bootstrap</tspan>
                </text>
            </g>
        </g>
    </g>
</svg>