<?xml version="1.0" encoding="UTF-8"?>
<svg width="110px" height="100px" viewBox="0 0 110 100" version="1.1" xmlns="http://www.w3.org/2000/svg" xmlns:xlink="http://www.w3.org/1999/xlink">
    <!-- Generator: Sketch 55.2 (78181) - https://sketchapp.com -->
    <title>Group 22</title>
    <desc>Created with Sketch.</desc>
    <g id="Page-1" stroke="none" stroke-width="1" fill="none" fill-rule="evenodd">
        <g id="Desktop" transform="translate(-767.000000, -295.000000)">
            <g id="Group-22" transform="translate(767.000000, 295.000000)">
                <rect id="Rectangle" fill="#FFFFFF" x="0" y="0" width="110" height="100"></rect>
                <g id="Group-13" transform="translate(31.000000, 8.000000)">
                    <circle id="Oval" fill="#E5F4F3" cx="24" cy="24" r="24"></circle>
                    <g id="git-seeklogo.com" transform="translate(9.000000, 9.000000)" fill="#DE4C36" fill-rule="nonzero">
                        <path d="M29.4341658,13.6635652 L16.3357098,0.565845203 C15.5819223,-0.188615068 14.3584166,-0.188615068 13.6036417,0.565845203 L10.8837527,3.28578639 L14.3340584,6.73615836 C15.135904,6.46525052 16.0552613,6.64695298 16.6944994,7.28620336 C17.3367,7.92940379 17.5170823,8.85667891 17.2395964,9.66117319 L20.5648194,12.9864601 C21.3692983,12.709298 22.2975431,12.8886963 22.9400728,13.5322259 C23.8380345,14.4298756 23.8380345,15.8848121 22.9400728,16.7831202 C22.041782,17.6814282 20.5868735,17.6814282 19.6882535,16.7831202 C19.0128073,16.1070026 18.8459207,15.1148808 19.187923,14.2827361 L16.0868611,11.1816147 L16.086532,19.3424258 C16.3054266,19.4510523 16.5121421,19.5955584 16.6944994,19.7772609 C17.5924611,20.6749106 17.5924611,22.1298471 16.6944994,23.0288135 C15.7962086,23.9267924 14.3406417,23.9267924 13.4436676,23.0288135 C12.5457059,22.1298471 12.5457059,20.6749106 13.4436676,19.7772609 C13.6655247,19.5557287 13.9222732,19.3881806 14.1961384,19.2756041 L14.1961384,11.0387544 C13.9222732,10.9268363 13.6658538,10.7602757 13.4436676,10.5370976 C12.7632839,9.85768836 12.599689,8.85931228 12.9482745,8.02387589 L9.54734351,4.62222126 L0.566081212,13.6029977 C-0.188693737,14.3581163 -0.188693737,15.5816455 0.566081212,16.3361057 L13.6645372,29.4341548 C14.4186538,30.1886151 15.6418303,30.1886151 16.3969344,29.4341548 L29.4341658,16.3970024 C30.1886114,15.642213 30.1886114,14.4180255 29.4341658,13.6635652" id="Path"></path>
                    </g>
                </g>
                <text id="Git" font-family="AdobeKaitiStd-Regular, Adobe Kaiti Std" font-size="14" font-weight="normal" fill="#1F1E1E">
                    <tspan x="46.166" y="86">Git</tspan>
                </text>
            </g>
        </g>
    </g>
</svg>