<?xml version="1.0" encoding="UTF-8"?>
<svg width="110px" height="100px" viewBox="0 0 110 100" version="1.1" xmlns="http://www.w3.org/2000/svg" xmlns:xlink="http://www.w3.org/1999/xlink">
    <!-- Generator: Sketch 55.2 (78181) - https://sketchapp.com -->
    <title>Group 19</title>
    <desc>Created with Sketch.</desc>
    <g id="Page-1" stroke="none" stroke-width="1" fill="none" fill-rule="evenodd">
        <g id="Desktop" transform="translate(-400.000000, -295.000000)">
            <g id="Group-19" transform="translate(400.000000, 295.000000)">
                <rect id="Rectangle" fill="#FFFFFF" x="0" y="0" width="110" height="100"></rect>
                <g id="Group-2" transform="translate(32.000000, 8.000000)">
                    <circle id="Oval" fill="#E5F4F3" cx="24" cy="24" r="24"></circle>
                    <g id="github" transform="translate(10.000000, 10.000000)" fill-rule="nonzero">
                        <path d="M28,14 C28,20.9983047 22.8651172,26.7971484 16.1571484,27.8348438 C16.0057187,27.85825 15.8531406,27.8794141 15.7000156,27.8976797 C15.2074453,27.9576719 14.7068906,27.9914141 14.1999922,27.99825 C14.1331641,27.9994531 14.0668828,28 14,28 C13.9331172,28 13.8668359,27.9994531 13.8000078,27.9983047 C13.2931641,27.9914687 12.7925547,27.9577266 12.2999844,27.8977344 C12.1468594,27.8794688 11.9942812,27.8583047 11.8428516,27.8348984 C5.13488281,26.7971484 0,20.9983047 0,14 C0,6.26800781 6.26800781,0 14,0 C21.7319922,0 28,6.26800781 28,14 Z" id="Path" fill="#F2F2F2"></path>
                        <g id="Group" fill="#222123">
                            <path d="M28,13.824 C28,14.344776 27.9708516,14.858802 27.9137031,15.364944 C27.9074141,15.421374 27.901125,15.478344 27.8942891,15.534774 C27.8583047,15.821406 27.8131328,16.10577 27.7599766,16.386786 C27.7496953,16.442622 27.7388125,16.497918 27.7273828,16.552674 C26.7376484,21.436218 23.1428203,25.389882 18.4336797,26.939844 C17.7239453,27.075276 17.4719453,26.644734 17.4719453,26.276292 C17.4719453,25.820964 17.4879688,24.332454 17.4879688,22.482846 C17.4879688,21.193002 17.0405156,20.351682 16.5388125,19.922868 C18.9633828,19.65654 21.4839297,18.89028 22.4839453,16.063434 C22.5039609,16.008138 22.5228281,15.951708 22.5410938,15.894738 C22.5970937,15.72264 22.6468047,15.543198 22.691375,15.355872 C22.7045,15.300036 22.7176797,15.243606 22.7296562,15.186042 C22.8605234,14.573844 22.9313984,13.882644 22.9313984,13.101696 C22.9313984,11.592882 22.3879687,10.359468 21.4902734,9.391248 C21.6359609,9.04311 22.1154062,7.637004 21.3531172,5.732694 C21.3531172,5.732694 20.1794141,5.361444 17.5068359,7.150086 C16.3879844,6.84369 15.1896719,6.690222 14,6.684606 C12.8102734,6.690222 11.6125625,6.843744 10.4954063,7.150086 C7.82053125,5.361444 6.64453125,5.732694 6.64453125,5.732694 C5.88453906,7.637004 6.36398438,9.04311 6.509125,9.391248 C5.61367188,10.359468 5.06625,11.592936 5.06625,13.101696 C5.06625,13.88205 5.137125,14.57325 5.26853906,15.185448 C5.28051563,15.243012 5.29309375,15.299442 5.30627344,15.355278 C5.35084375,15.542604 5.40115625,15.722586 5.45715625,15.894684 C5.47542188,15.951654 5.49489063,16.008084 5.51430469,16.06338 C6.51371875,18.88515 9.02742969,19.662156 11.4451641,19.93356 C11.0445781,20.27889 10.6817266,20.88882 10.556,21.782574 C9.757125,22.135788 7.73084375,22.746312 6.48227344,20.633184 C6.48227344,20.633184 5.74169531,19.30608 4.33600781,19.208448 C4.33600781,19.208448 2.96969531,19.190952 4.24057813,20.048634 C4.24057813,20.048634 5.15774219,20.4741 5.79485156,22.071474 C5.79485156,22.071474 6.61658594,24.538896 10.5114297,23.702706 C10.5177188,24.857712 10.5302969,25.94673 10.5302969,26.276238 C10.5302969,26.641278 10.2737031,27.069552 9.57370313,26.941464 C4.86171875,25.39269 1.26284375,21.438486 0.2725625,16.552674 L0.2725625,16.552134 C0.261132813,16.497378 0.25025,16.442082 0.240570312,16.386786 C0.186867187,16.10577 0.141695313,15.821406 0.106257813,15.534774 C0.0988203125,15.478344 0.09253125,15.421914 0.0862421875,15.364944 C0.0291484375,14.858802 0,14.344776 0,13.824 C0,6.18921 6.26915625,0 14,0 C21.7314453,0 28,6.18921 28,13.824 Z" id="Path"></path>
                            <path d="M5.17770313,19.639692 C5.07658594,19.59228 4.96682813,19.612044 4.93658594,19.682568 C4.90399219,19.751418 4.96059375,19.845054 5.0623125,19.890198 C5.16233594,19.93761 5.2714375,19.917306 5.30233594,19.848456 C5.33771875,19.779606 5.27942188,19.684836 5.17770313,19.639692 Z" id="Path"></path>
                            <path d="M5.8296875,20.185308 C5.73770313,20.089404 5.611375,20.060622 5.54285156,20.121534 C5.474875,20.18358 5.49199219,20.312802 5.58342969,20.40876 C5.67202344,20.505258 5.80283594,20.53404 5.86971875,20.473074 C5.93944531,20.410974 5.921125,20.282886 5.8296875,20.185308 Z" id="Path"></path>
                            <path d="M6.42342969,20.936286 C6.3354375,20.814408 6.19713281,20.76138 6.11083594,20.820078 C6.02284375,20.879316 6.02284375,21.026574 6.10853906,21.149586 C6.19538281,21.272598 6.33538281,21.327894 6.42167969,21.268656 C6.509125,21.208824 6.509125,21.061026 6.42342969,20.936286 Z" id="Path"></path>
                            <path d="M7.10111719,21.68505 C6.98053125,21.57165 6.81597656,21.548484 6.73826563,21.632022 C6.66170313,21.715506 6.69539063,21.874104 6.81767188,21.985236 C6.93765625,22.09923 7.10111719,22.121802 7.17767969,22.038264 C7.2594375,21.95532 7.22230469,21.796236 7.10111719,21.68505 Z" id="Path"></path>
                            <path d="M7.99197656,22.201344 C7.83196094,22.152258 7.67369531,22.203612 7.64110156,22.312476 C7.60910938,22.421934 7.71252344,22.548888 7.87078906,22.5963 C8.02965625,22.641984 8.18677344,22.592898 8.2210625,22.484574 C8.25371094,22.374576 8.15029688,22.248756 7.99197656,22.201344 Z" id="Path"></path>
                            <path d="M9.06401563,22.366098 C8.8965625,22.368906 8.76514844,22.462002 8.76514844,22.57713 C8.76684375,22.689396 8.90230469,22.781952 9.06970313,22.77801 C9.23600781,22.776336 9.37086719,22.681512 9.36682031,22.567572 C9.366875,22.454712 9.23026563,22.362696 9.06401563,22.366098 Z" id="Path"></path>
                            <path d="M10.4331172,22.38867 C10.4119531,22.27527 10.2634219,22.208688 10.0982656,22.236876 C9.93540625,22.266198 9.81771875,22.380732 9.83828125,22.494726 C9.85884375,22.604778 10.009125,22.673574 10.1719844,22.644252 C10.3371406,22.613796 10.4525859,22.499856 10.4331172,22.38867 Z" id="Path"></path>
                        </g>
                    </g>
                </g>
                <text id="GitHub" font-family="AdobeKaitiStd-Regular, Adobe Kaiti Std" font-size="14" font-weight="normal" fill="#1F1E1E">
                    <tspan x="33.013" y="86">GitHub</tspan>
                </text>
            </g>
        </g>
    </g>
</svg>