<?xml version="1.0" encoding="UTF-8"?>
<svg width="110px" height="100px" viewBox="0 0 110 100" version="1.1" xmlns="http://www.w3.org/2000/svg" xmlns:xlink="http://www.w3.org/1999/xlink">
    <!-- Generator: Sketch 55.2 (78181) - https://sketchapp.com -->
    <title>Group 28</title>
    <desc>Created with Sketch.</desc>
    <g id="Page-1" stroke="none" stroke-width="1" fill="none" fill-rule="evenodd">
        <g id="Desktop" transform="translate(-644.000000, -430.000000)">
            <g id="Group-28" transform="translate(644.000000, 430.000000)">
                <rect id="Rectangle" fill="#FFFFFF" x="0" y="0" width="110" height="100"></rect>
                <g id="Group-10" transform="translate(31.000000, 6.000000)">
                    <circle id="Oval" fill="#E5F4F3" cx="24" cy="24" r="24"></circle>
                    <g id="javascript2" transform="translate(11.000000, 10.000000)" fill-rule="nonzero">
                        <rect id="Rectangle" fill="#F7DF1E" x="0" y="0" width="27" height="27"></rect>
                        <path d="M18.15576,21.0976627 C18.7059178,22.0113979 19.4216865,22.6830286 20.6876129,22.6830286 C21.7510778,22.6830286 22.4304294,22.1423725 22.4304294,21.3953323 C22.4304294,20.5001187 21.7324358,20.1830456 20.5618873,19.6622341 L19.9202534,19.3822043 C18.0681856,18.579599 16.8378092,17.5741375 16.8378092,15.4485566 C16.8378092,13.4905526 18.304463,12 20.5965702,12 C22.2284015,12 23.4015511,12.5776994 24.2469472,14.0903016 L22.2483441,15.3956376 C21.8083046,14.5930323 21.3335822,14.2768411 20.5965702,14.2768411 C19.844818,14.2768411 19.3683615,14.7619322 19.3683615,15.3956376 C19.3683615,16.1788392 19.8452516,16.4959123 20.9464342,16.9810034 L21.5880681,17.2605923 C23.7687565,18.2118118 25,19.181553 25,21.3618169 C25,23.7123037 23.1847829,25 20.7470074,25 C18.363424,25 16.8235025,23.8446012 16.0700161,22.3302351 L18.15576,21.0976627 Z M9.08921217,21.3238916 C9.49240107,22.0515282 9.85917291,22.6667119 10.7409861,22.6667119 C11.5842145,22.6667119 12.1161637,22.3311171 12.1161637,21.0262221 L12.1161637,12.1490553 L14.6826995,12.1490553 L14.6826995,21.0615014 C14.6826995,23.7647817 13.1245695,24.9951491 10.8502372,24.9951491 C8.79527445,24.9951491 7.60521689,23.913396 7,22.6104854 L9.08921217,21.3238916 Z" id="Shape" fill="#000000"></path>
                    </g>
                </g>
                <text id="Javascript" font-family="AdobeKaitiStd-Regular, Adobe Kaiti Std" font-size="14" font-weight="normal" fill="#1F1E1E">
                    <tspan x="23.584" y="86">Javascript</tspan>
                </text>
            </g>
        </g>
    </g>
</svg>