<?xml version="1.0" encoding="UTF-8"?>
<svg width="110px" height="100px" viewBox="0 0 110 100" version="1.1" xmlns="http://www.w3.org/2000/svg" xmlns:xlink="http://www.w3.org/1999/xlink">
    <!-- Generator: Sketch 55.2 (78181) - https://sketchapp.com -->
    <title>Group 26</title>
    <desc>Created with Sketch.</desc>
    <g id="Page-1" stroke="none" stroke-width="1" fill="none" fill-rule="evenodd">
        <g id="Desktop" transform="translate(-402.000000, -430.000000)">
            <g id="Group-26" transform="translate(402.000000, 430.000000)">
                <rect id="Rectangle" fill="#FFFFFF" x="0" y="0" width="110" height="100"></rect>
                <g id="Group-7" transform="translate(31.000000, 6.000000)">
                    <circle id="Oval" fill="#E5F4F3" cx="24" cy="24" r="24"></circle>
                    <g id="jest-seeklogo.com" transform="translate(11.000000, 9.000000)" fill-rule="nonzero">
                        <path d="M25.266031,14.7759247 C25.266031,13.2679768 24.0416755,12.0455575 22.5313392,12.0455575 C22.4341764,12.0455575 22.3383645,12.0507451 22.2439035,12.0606017 L26,1 L10.037863,1 L13.7886597,12.0510564 C13.7336873,12.0477363 13.6784033,12.0455575 13.6224957,12.0455575 C12.1121593,12.0455575 10.8878039,13.2679768 10.8878039,14.7759247 C10.8878039,15.9948164 11.6878644,17.0267449 12.7921952,17.3778455 C12.2089065,18.3865334 11.4750414,19.2949957 10.6418313,20.0797843 C9.50881922,21.146989 8.2121372,21.9561596 6.80977112,22.4547971 C5.14002543,21.5984188 4.35149977,19.693719 5.0630226,18.0238124 C5.14335079,17.835293 5.22534166,17.644076 5.30379934,17.4537928 C6.51339854,17.1718955 7.41477856,16.089128 7.41477856,14.795534 C7.41477856,13.2875861 6.19042308,12.0651668 4.68008677,12.0651668 C3.16964654,12.0651668 1.94529106,13.2875861 1.94529106,14.795534 C1.94529106,15.7202856 2.40616498,16.5369264 3.1105175,17.0308951 C2.43359919,18.5696576 1.43869346,20.1799061 1.12870769,22.0462173 C0.757202783,24.2830309 1.1275646,26.6573173 3.06510558,27.9981189 C7.57761721,31.1206729 12.4758704,26.0623969 17.6404641,24.7907986 C19.5121214,24.3299273 21.5666735,24.4042145 23.2157396,23.4506195 C24.4541239,22.7345155 25.2704995,21.5477873 25.5022354,20.2153897 C25.7310616,18.8991775 25.3973827,17.5886718 24.6300562,16.5260324 C25.0269169,16.0520881 25.266031,15.4420197 25.266031,14.7759247 L25.266031,14.7759247 Z M16.3569796,14.7855737 C16.3569796,14.7823574 16.3572914,14.779141 16.3572914,14.7759247 C16.3572914,13.7857049 15.8291829,12.9185363 15.0389945,12.4399231 L18.0243352,6.41280043 L21.0148718,12.503835 C20.2804871,12.9933423 19.7965435,13.8281399 19.7965435,14.7759247 C19.7965435,14.7958453 19.7976866,14.8154546 19.7981023,14.8352715 L16.3569796,14.7855737 L16.3569796,14.7855737 Z" id="Shape" fill="#C63D14"></path>
                        <path d="M25.9873947,14.7707506 C25.9873947,13.0745914 24.7727113,11.6593038 23.1726451,11.3569981 L27,0 L8.90852593,0 L12.7416817,11.3800238 C11.197303,11.7258345 10.0388344,13.1143824 10.0388344,14.7707506 C10.0388344,16.0146714 10.6922132,17.1072802 11.6714904,17.7212293 C11.2004671,18.4271753 10.6419046,19.0915264 10.0018148,19.6990029 C8.98678373,20.6624765 7.85584248,21.393146 6.6366239,21.8738217 C5.40865142,21.0977374 4.88953431,19.6342762 5.42869048,18.3592653 L5.47087797,18.2595224 C5.49724516,18.1971301 5.52371781,18.1345255 5.55008499,18.071921 C6.89881918,17.598779 7.86965889,16.307109 7.86965889,14.7908053 C7.86965889,12.8749995 6.32042864,11.3164643 4.41619062,11.3164643 C2.51195261,11.3164643 0.962827831,12.8749995 0.962827831,14.7908053 C0.962827831,15.7577805 1.35780824,16.6333955 1.99357378,17.2638977 C1.87829645,17.5111326 1.75711287,17.7623998 1.6325543,18.0198212 C1.05121063,19.221086 0.392347442,20.5826822 0.143124821,22.0946354 C-0.351839953,25.0974261 0.446452903,27.4978336 2.39097997,28.8536998 C3.57096418,29.6764723 4.76919448,30 5.97501853,30 C8.24565493,30 10.5424476,28.8523204 12.7889317,27.7296827 C14.4069276,26.9212349 16.0798726,26.0851988 17.7324622,25.6751919 C18.347345,25.5226066 18.9800519,25.4308219 19.6498838,25.3336257 C20.9781571,25.1408249 22.3517819,24.9415514 23.5684692,24.2326343 C24.9786917,23.4108168 25.9441525,22.0322431 26.2171056,20.4504699 C26.4514571,19.0925875 26.1693282,17.7326891 25.4814612,16.5792796 C25.8021916,16.052128 25.9873947,15.4328734 25.9873947,14.7707506 L25.9873947,14.7707506 Z M24.6316996,14.7707506 C24.6316996,15.9344527 23.6907075,16.8812671 22.5339264,16.8812671 C21.3773563,16.8812671 20.4362587,15.9344527 20.4362587,14.7707506 C20.4362587,13.6070485 21.3773563,12.6603402 22.5339264,12.6603402 C23.6907075,12.6603402 24.6316996,13.6070485 24.6316996,14.7707506 L24.6316996,14.7707506 Z M25.1088401,1.36393057 L21.7290945,11.3926509 C21.5825984,11.4279853 21.4397938,11.4725512 21.3011024,11.5261365 L17.9623841,4.67380193 L14.6139627,11.4856027 C14.4692596,11.435413 14.3203377,11.3941364 14.167619,11.3635769 L10.7994749,1.36393057 L25.1088401,1.36393057 L25.1088401,1.36393057 Z M13.4921972,12.6603402 C14.6488728,12.6603402 15.5898649,13.6070485 15.5898649,14.7707506 C15.5898649,15.9344527 14.6488728,16.8812671 13.4921972,16.8812671 C12.3356271,16.8812671 11.3945295,15.9344527 11.3945295,14.7707506 C11.3945295,13.6070485 12.3356271,12.6603402 13.4921972,12.6603402 L13.4921972,12.6603402 Z M4.41619062,12.6803949 C5.57297171,12.6803949 6.51396377,13.6271032 6.51396377,14.7908053 C6.51396377,15.9545073 5.57297171,16.9013218 4.41619062,16.9013218 C3.25962047,16.9013218 2.31852295,15.9545073 2.31852295,14.7908053 C2.31852295,13.6271032 3.25962047,12.6803949 4.41619062,12.6803949 L4.41619062,12.6803949 Z M24.881344,20.2171352 C24.677262,21.4000431 23.9510043,22.4334428 22.8889342,23.052273 C21.8988992,23.62919 20.7124814,23.8014056 19.4563487,23.9835955 C18.7834582,24.0812161 18.0875755,24.1822323 17.4078295,24.3509463 C15.6104313,24.7968181 13.8694589,25.6668093 12.1858615,26.5081509 C8.81666266,28.1917892 5.90688573,29.6457006 3.16332752,27.7326537 C1.15362077,26.3313726 1.24643326,23.7385888 1.48057385,22.3177836 C1.69752304,21.0014961 2.28414014,19.7891959 2.85145647,18.6167929 C2.94964786,18.4139116 3.0449916,18.2151687 3.13854237,18.017699 C3.41993295,18.1309178 3.71914775,18.2080593 4.0310188,18.2430755 C3.45357748,20.1605789 4.36176876,22.2454169 6.26790521,23.230643 L6.52872939,23.365508 L6.80505747,23.266508 C8.31199476,22.7266232 9.70049066,21.8601336 10.9321546,20.6911261 C11.7283381,19.9355208 12.4125138,19.0994846 12.975084,18.2061494 C13.143834,18.2317218 13.3164863,18.2451976 13.4921972,18.2451976 C15.3964352,18.2451976 16.9456655,16.6866624 16.9456655,14.7707506 C16.9456655,13.740428 16.4971069,12.8138805 15.7866695,12.1770117 L17.9570052,7.76158626 L20.1493838,12.2611565 C19.4915753,12.8942054 19.0805636,13.7847818 19.0805636,14.7707506 C19.0805636,16.6866624 20.6296884,18.2451976 22.5339264,18.2451976 C23.265563,18.2451976 23.9442543,18.0145158 24.5032386,17.6225475 C24.8913636,18.4218698 25.0359612,19.3212533 24.881344,20.2171352 L24.881344,20.2171352 Z" id="Shape" fill="#FFFFFF"></path>
                    </g>
                </g>
                <text id="Jest" font-family="AdobeKaitiStd-Regular, Adobe Kaiti Std" font-size="14" font-weight="normal" fill="#1F1E1E">
                    <tspan x="42.96" y="86">Jest</tspan>
                </text>
            </g>
        </g>
    </g>
</svg>