<?xml version="1.0" encoding="UTF-8"?>
<svg width="110px" height="100px" viewBox="0 0 110 100" version="1.1" xmlns="http://www.w3.org/2000/svg" xmlns:xlink="http://www.w3.org/1999/xlink">
    <!-- Generator: Sketch 55.2 (78181) - https://sketchapp.com -->
    <title>Group 25</title>
    <desc>Created with Sketch.</desc>
    <g id="Page-1" stroke="none" stroke-width="1" fill="none" fill-rule="evenodd">
        <g id="Desktop" transform="translate(-262.000000, -430.000000)">
            <g id="Group-25" transform="translate(262.000000, 430.000000)">
                <rect id="Rectangle" fill="#FFFFFF" x="0" y="0" width="110" height="100"></rect>
                <g id="Group-6" transform="translate(31.000000, 6.000000)">
                    <circle id="Oval" fill="#E5F4F3" cx="24" cy="24" r="24"></circle>
                    <g id="mocha-seeklogo.com" transform="translate(10.000000, 8.000000)" fill-rule="nonzero">
                        <path d="M28.1158398,25.3921201 L15.3841602,32.7609337 C14.8359922,33.0796888 14.1640078,33.0796888 13.6158398,32.7609337 L0.884160156,25.3921201 C0.335992188,25.0732516 0,24.4887349 0,23.8688136 L0,9.1311864 C0,8.4935628 0.335992188,7.92674844 0.884160156,7.6078799 L13.6158398,0.239066296 C14.1640078,-0.0796887653 14.8359922,-0.0796887653 15.3841602,0.239066296 L28.1158398,7.6078799 C28.6640078,7.92674844 29,8.51126511 29,9.1311864 L29,23.8688136 C28.9823281,24.4887349 28.6463359,25.0732516 28.1158398,25.3921201 L28.1158398,25.3921201 Z" id="Path" fill="#8D6748"></path>
                        <path d="M15.5,2 C15.2352217,2 14.9703304,2.07209418 14.7408408,2.21639808 L3.75915922,8.6908946 C3.28242261,8.96147886 3,9.48439274 3,10.0254457 L3,22.9744388 C3,23.5335153 3.28242261,24.0385211 3.75915922,24.3091054 L14.7408408,30.7836019 C14.9703304,30.9279058 15.2352217,31 15.5,31 C15.7647783,31 16.0296696,30.9279058 16.2591592,30.7836019 L27.2408408,24.3091054 C27.7175774,24.0385211 28,23.5154917 28,22.9745543 L28,10.0254457 C28,9.4663692 27.7175774,8.96147886 27.2408408,8.6908946 L16.2591592,2.21639808 C16.0296696,2.07209418 15.7647783,2 15.5,2 L15.5,2 Z M15.5,2.54105297 L15.5,2.54105297 C15.6765565,2.54105297 15.8354688,2.5951236 15.994381,2.68535687 L26.9759494,9.15985339 C27.2761295,9.34020438 27.4703304,9.68288281 27.4703304,10.0435848 L27.4703304,22.9925778 C27.4703304,23.3532798 27.2761295,23.6958427 26.9759494,23.8761937 L15.994381,30.3506902 C15.8354688,30.4409235 15.6765565,30.4949941 15.5,30.4949941 C15.3234435,30.4949941 15.1468869,30.4409235 15.005619,30.3506902 L4.0240506,23.8761937 C3.72387054,23.6958427 3.52966964,23.3532798 3.52966964,22.9925778 L3.52966964,10.0435848 C3.52966964,9.68288281 3.72387054,9.34020438 4.0240506,9.15985339 L15.005619,2.68535687 C15.1645312,2.5951236 15.3410878,2.54105297 15.5,2.54105297 L15.5,2.54105297 Z M14.4847829,13.8308862 L15.9678126,13.8308862 C16.0208588,13.8308862 16.0561475,13.8127472 16.0914362,13.7767001 C16.9742189,12.7668038 17.0625537,10.6566626 17.0625537,10.0254919 C17.0625537,9.9353742 16.9918632,9.84514093 16.8859972,9.84514093 L15.2262978,9.84514093 L13.5667115,9.84514093 C13.4784897,9.84514093 13.3901549,9.91723511 13.3901549,10.0254919 C13.3901549,10.6386391 13.4784897,12.7487803 14.3612725,13.7767001 C14.3965612,13.8127472 14.4318499,13.8308862 14.4847829,13.8308862 Z M14.0787368,10.4042174 L15.2439421,10.4042174 L16.4092606,10.4042174 C16.4974823,10.4042174 16.5858171,10.4763116 16.5858171,10.5845684 C16.5858171,11.0895743 16.4974823,12.5142431 15.8972353,13.2536706 C15.8443022,13.2898333 15.8090135,13.3078568 15.7559674,13.3078568 L14.7143856,13.3078568 C14.6613394,13.3078568 14.6260507,13.2898333 14.5907621,13.2536706 C13.9904019,12.5323822 13.9198246,11.0895743 13.9021802,10.5845684 C13.9021802,10.4944507 13.9727576,10.4042174 14.0787368,10.4042174 Z M15.5617891,9.48445051 C15.5617891,9.48445051 16.197438,9.10572499 15.8089231,8.42036812 C15.5794335,8.05966614 15.4735674,7.75315034 15.5617891,7.62686998 C15.3322996,7.91547778 14.9438978,8.22199359 15.3675882,8.87130336 C15.5088561,9.0336308 15.5794335,9.3761937 15.5617891,9.48445051 Z M14.8555856,9.53854425 C14.8555856,9.53854425 15.279276,9.28609908 15.0144978,8.8171403 C14.8555856,8.58271867 14.7850082,8.36632059 14.8555856,8.29411087 C14.6966734,8.49248541 14.4495394,8.69085994 14.7319621,9.14179518 C14.8202969,9.23191291 14.8555856,9.46645007 14.8555856,9.53854425 Z M14.8026186,13.0914125 L15.6854013,13.0914125 C15.72069,13.0914125 15.7559787,13.073389 15.7912674,13.0373419 C16.0914475,12.6766399 16.2327153,12.1175634 16.3032927,11.6305811 C16.3032927,11.6305811 16.2856484,11.7929085 15.8619579,11.955236 C15.2793552,12.171634 14.2553046,12.0273301 14.2553046,12.0273301 C14.3435263,12.4060557 14.4847942,12.7667576 14.6966394,13.0373419 C14.7142838,13.073389 14.7673299,13.0914125 14.8026186,13.0914125 Z M8.1641942,18.1591944 L8.1641942,14.5522902 L7.51090104,14.5522902 L6.43391741,16.2475433 L5.35693377,14.5522902 L4.70375372,14.5522902 L4.70375372,18.177218 L5.32164509,18.177218 L5.32164509,15.5982335 L6.41627306,17.275463 L6.43391741,17.275463 L7.54630283,15.58021 L7.54630283,18.1591944 L8.1641942,18.1591944 Z M12.1190382,14.6244306 C11.8894356,14.5341973 11.6423016,14.4801267 11.3775234,14.4801267 C11.112632,14.4801267 10.8654981,14.5161738 10.6358954,14.6244306 C10.4064058,14.7145483 10.2122049,14.8588522 10.0532927,15.0211797 C9.87673616,15.2015306 9.75322575,15.3999052 9.66489092,15.6163033 C9.5766692,15.8507249 9.52362306,16.0851465 9.52362306,16.3377072 L9.52362306,16.3557308 C9.52362306,16.6081759 9.5766692,16.8607366 9.66489092,17.0771347 C9.75322575,17.3115563 9.87673616,17.5099309 10.0356484,17.6722583 C10.1945606,17.8345858 10.3887615,17.9788897 10.618251,18.0690074 C10.8478537,18.1592407 11.0949876,18.2133113 11.3597659,18.2133113 C11.6246573,18.2133113 11.8717912,18.1772642 12.1013939,18.0690074 C12.3308835,17.9788897 12.5250844,17.8345858 12.6839966,17.6722583 C12.8605531,17.4919073 12.9840635,17.2935328 13.0723984,17.0771347 C13.1606201,16.8427131 13.2136662,16.6081759 13.2136662,16.3557308 L13.2136662,16.3377072 C13.2136662,16.0851465 13.1606201,15.8327013 13.0723984,15.6163033 C12.9840635,15.3818816 12.8605531,15.1835071 12.7016409,15.0211797 C12.5427287,14.8588522 12.3485278,14.7145483 12.1190382,14.6244306 Z M12.5427287,16.3737543 C12.5427287,16.5360818 12.50744,16.6984092 12.4543939,16.8607366 C12.3838165,17.004925 12.3132391,17.1492289 12.20726,17.2574857 C12.1013939,17.365627 11.9777704,17.4558602 11.8365025,17.5279544 C11.6952347,17.6001641 11.5363225,17.6362112 11.3597659,17.6362112 C11.2009668,17.6362112 11.0244103,17.6001641 10.8831424,17.5279544 C10.7418746,17.4558602 10.618251,17.365627 10.512385,17.2574857 C10.4064058,17.1312054 10.3181841,17.004925 10.2651379,16.8427131 C10.2122049,16.6803856 10.1769162,16.5180582 10.1769162,16.3377072 L10.1769162,16.3196837 C10.1769162,16.1573562 10.2122049,15.9950288 10.2651379,15.8327013 C10.3358284,15.6883974 10.4064058,15.5442091 10.512385,15.4359523 C10.618251,15.3276955 10.7418746,15.2375777 10.8831424,15.165368 C11.0244103,15.0932738 11.1832094,15.0572267 11.3597659,15.0572267 C11.5363225,15.0572267 11.6952347,15.0932738 11.8365025,15.165368 C11.9777704,15.2375777 12.1013939,15.3276955 12.20726,15.4359523 C12.3132391,15.5622326 12.4014609,15.6883974 12.4543939,15.8507249 C12.50744,16.0130523 12.5427287,16.1753798 12.5427287,16.3557308 L12.5427287,16.3737543 Z M15.1557204,15.8327013 C15.2262978,15.6883974 15.2969882,15.5440935 15.4028543,15.4359523 C15.5088335,15.3276955 15.632457,15.2375777 15.7736118,15.165368 C15.9148796,15.0932738 16.0561475,15.0572267 16.232704,15.0572267 C16.4445493,15.0572267 16.6211058,15.0932738 16.780018,15.1833916 C16.9389302,15.2736248 17.0801981,15.3818816 17.2213528,15.5080465 L17.6275121,15.0392032 C17.5391772,14.9489699 17.4509555,14.8768758 17.3626207,14.804666 C17.274399,14.7325719 17.1684198,14.6785012 17.0625537,14.6243151 C16.9389302,14.588268 16.832951,14.5522209 16.6916832,14.5161738 C16.5505284,14.4981502 16.4092606,14.4801267 16.2503484,14.4801267 C15.9678126,14.4801267 15.7383231,14.5341973 15.5088335,14.6243151 C15.2793439,14.7145483 15.085143,14.8588522 14.9262308,15.0211797 C14.7673186,15.2015306 14.6436951,15.3999052 14.5554734,15.6163033 C14.4671385,15.8327013 14.4142055,16.0851465 14.4142055,16.3377072 L14.4142055,16.3557308 C14.4142055,16.6081759 14.4671385,16.8425976 14.5554734,17.0771347 C14.6436951,17.3115563 14.7673186,17.5099309 14.9262308,17.6722583 C15.085143,17.8345858 15.2793439,17.9788897 15.4911891,18.0690074 C15.7030344,18.1592407 15.932524,18.2133113 16.1974153,18.2133113 C16.3563275,18.2133113 16.5151266,18.2133113 16.6740388,18.1772642 C16.7976624,18.1592407 16.9389302,18.1050545 17.0447963,18.0509838 C17.1507754,17.9969132 17.2567546,17.942727 17.3626207,17.8526093 C17.4685999,17.762376 17.5568216,17.6902819 17.6451564,17.5820251 L17.2391103,17.1672524 C17.0801981,17.3115563 16.9212859,17.4198132 16.780018,17.5099309 C16.6387501,17.6001641 16.4445493,17.6362112 16.232704,17.6362112 C16.0737918,17.6362112 15.9148796,17.5820251 15.7736118,17.5279544 C15.632457,17.4738838 15.5088335,17.365627 15.4028543,17.2574857 C15.2969882,17.1312054 15.2086534,17.004925 15.1557204,16.8425976 C15.1027874,16.6803856 15.0673856,16.5180582 15.0673856,16.3377072 L15.0673856,16.3196837 C15.0673856,16.1573562 15.1027874,15.9950288 15.1557204,15.8327013 Z M18.881007,14.552244 L18.881007,18.1591482 L19.4988984,18.1591482 L19.4988984,16.6442461 L21.1938865,16.6442461 L21.1938865,18.1591482 L21.8117778,18.1591482 L21.8117778,14.552244 L21.1938865,14.552244 L21.1938865,16.0491225 L19.4988984,16.0491225 L19.4988984,14.552244 L18.881007,14.552244 Z M25.6607106,17.2935444 L26.0138237,18.1592522 L26.6670037,18.1592522 L25.1133966,14.5342089 L24.5483251,14.5342089 L22.994718,18.1592522 L23.6302537,18.1592522 L24.0010112,17.2935444 L25.6607106,17.2935444 Z M24.8308609,15.2916599 L25.4311079,16.7344678 L24.2306138,16.7344678 L24.8308609,15.2916599 Z M4.26237366,19.4937455 L26.7729376,19.4937455 L26.7729376,19.295371 L4.26237366,19.295371 L4.26237366,19.4937455 Z M17.2037424,12.5143009 C17.2037424,12.5863951 17.1860981,12.6405813 17.1860981,12.7126754 L26.7729716,12.7126754 L26.7729716,12.5143009 L17.2037424,12.5143009 Z M13.2665879,12.5143009 L4.26231711,12.5143009 L4.26231711,12.7126754 L13.2842323,12.7126754 C13.2842323,12.6405813 13.2665879,12.5863951 13.2665879,12.5143009 Z" id="Shape" fill="#FFFFFF"></path>
                    </g>
                </g>
                <text id="Mocha" font-family="AdobeKaitiStd-Regular, Adobe Kaiti Std" font-size="14" font-weight="normal" fill="#1F1E1E">
                    <tspan x="33.853" y="86">Mocha</tspan>
                </text>
            </g>
        </g>
    </g>
</svg>