<?xml version="1.0" encoding="UTF-8"?>
<svg width="110px" height="105px" viewBox="0 0 110 105" version="1.1" xmlns="http://www.w3.org/2000/svg" xmlns:xlink="http://www.w3.org/1999/xlink">
    <!-- Generator: Sketch 55.2 (78181) - https://sketchapp.com -->
    <title>Group 15</title>
    <desc>Created with Sketch.</desc>
    <defs>
        <linearGradient x1="64.371114%" y1="17.4868311%" x2="32.4771899%" y2="89.7551419%" id="linearGradient-1">
            <stop stop-color="#41873F" offset="0%"></stop>
            <stop stop-color="#418B3D" offset="32.88%"></stop>
            <stop stop-color="#419637" offset="63.52%"></stop>
            <stop stop-color="#3FA92D" offset="93.19%"></stop>
            <stop stop-color="#3FAE2A" offset="100%"></stop>
        </linearGradient>
        <linearGradient x1="68.5577401%" y1="17.4868311%" x2="27.3724043%" y2="89.7551419%" id="linearGradient-2">
            <stop stop-color="#41873F" offset="0%"></stop>
            <stop stop-color="#418B3D" offset="32.88%"></stop>
            <stop stop-color="#419637" offset="63.52%"></stop>
            <stop stop-color="#3FA92D" offset="93.19%"></stop>
            <stop stop-color="#3FAE2A" offset="100%"></stop>
        </linearGradient>
        <path d="M4.21115535,0.061143115 C4.07666735,-0.0137498872 3.91696286,-0.0137498872 3.78247486,0.061143115 L0.243759491,2.08325418 C0.109271496,2.15814718 0.0336219988,2.29961174 0.0336219988,2.44939774 L0.0336219988,6.50194131 C0.0336219988,6.65172732 0.117676996,6.79319187 0.243759491,6.86808487 L3.78247486,8.89019597 C3.91696286,8.96508893 4.07666735,8.96508893 4.21115535,8.89019597 L7.74987069,6.86808487 C7.88435869,6.79319187 7.96000822,6.65172732 7.96000822,6.50194131 L7.96000822,2.44939774 C7.96000822,2.29961174 7.87595324,2.15814718 7.74987069,2.08325418 L4.21115535,0.061143115 L4.21115535,0.061143115 Z" id="path-3"></path>
        <linearGradient x1="43.1400339%" y1="55.168777%" x2="161.463399%" y2="-18.3061379%" id="linearGradient-5">
            <stop stop-color="#41873F" offset="13.76%"></stop>
            <stop stop-color="#54A044" offset="40.32%"></stop>
            <stop stop-color="#66B848" offset="71.36%"></stop>
            <stop stop-color="#6CC04A" offset="90.81%"></stop>
        </linearGradient>
        <path d="M4.21115535,0.061143115 C4.07666735,-0.0137498872 3.91696286,-0.0137498872 3.78247486,0.061143115 L0.243759491,2.08325418 C0.109271496,2.15814718 0.0336219988,2.29961174 0.0336219988,2.44939774 L0.0336219988,6.50194131 C0.0336219988,6.65172732 0.117676996,6.79319187 0.243759491,6.86808487 L3.78247486,8.89019597 C3.91696286,8.96508893 4.07666735,8.96508893 4.21115535,8.89019597 L7.74987069,6.86808487 C7.88435869,6.79319187 7.96000822,6.65172732 7.96000822,6.50194131 L7.96000822,2.44939774 C7.96000822,2.29961174 7.87595324,2.15814718 7.74987069,2.08325418 L4.21115535,0.061143115 L4.21115535,0.061143115 Z" id="path-6"></path>
        <linearGradient x1="-4413.77%" y1="13.43%" x2="5327.93%" y2="13.43%" id="linearGradient-8">
            <stop stop-color="#6CC04A" offset="9.191646%"></stop>
            <stop stop-color="#66B848" offset="28.64%"></stop>
            <stop stop-color="#54A044" offset="59.68%"></stop>
            <stop stop-color="#41873F" offset="86.24%"></stop>
        </linearGradient>
        <linearGradient x1="-4.38880435%" y1="49.9972065%" x2="101.499239%" y2="49.9972065%" id="linearGradient-9">
            <stop stop-color="#6CC04A" offset="9.191646%"></stop>
            <stop stop-color="#66B848" offset="28.64%"></stop>
            <stop stop-color="#54A044" offset="59.68%"></stop>
            <stop stop-color="#41873F" offset="86.24%"></stop>
        </linearGradient>
        <linearGradient x1="-9713.77%" y1="36.21%" x2="27.93%" y2="36.21%" id="linearGradient-10">
            <stop stop-color="#6CC04A" offset="9.191646%"></stop>
            <stop stop-color="#66B848" offset="28.64%"></stop>
            <stop stop-color="#54A044" offset="59.68%"></stop>
            <stop stop-color="#41873F" offset="86.24%"></stop>
        </linearGradient>
        <linearGradient x1="-103.860714%" y1="50.2754209%" x2="100.796849%" y2="50.2754209%" id="linearGradient-11">
            <stop stop-color="#6CC04A" offset="9.191646%"></stop>
            <stop stop-color="#66B848" offset="28.64%"></stop>
            <stop stop-color="#54A044" offset="59.68%"></stop>
            <stop stop-color="#41873F" offset="86.24%"></stop>
        </linearGradient>
        <linearGradient x1="130.613025%" y1="-205.87408%" x2="4.39327731%" y2="198.58844%" id="linearGradient-12">
            <stop stop-color="#41873F" offset="0%"></stop>
            <stop stop-color="#418B3D" offset="32.88%"></stop>
            <stop stop-color="#419637" offset="63.52%"></stop>
            <stop stop-color="#3FA92D" offset="93.19%"></stop>
            <stop stop-color="#3FAE2A" offset="100%"></stop>
        </linearGradient>
    </defs>
    <g id="Page-1" stroke="none" stroke-width="1" fill="none" fill-rule="evenodd">
        <g id="Desktop" transform="translate(-6.000000, -295.000000)">
            <g id="Group-15" transform="translate(6.000000, 295.000000)">
                <rect id="Rectangle" fill="#FFFFFF" x="0" y="0" width="110" height="105"></rect>
                <g id="Group-5" transform="translate(31.000000, 8.000000)">
                    <circle id="Oval" fill="#E5F4F3" cx="24" cy="24" r="24"></circle>
                    <g id="nodejs-seeklogo.com" transform="translate(6.000000, 13.000000)">
                        <path d="M18,22 C17.8757764,22 17.7598343,21.9669269 17.6521739,21.9090491 L16.5507246,21.2558567 C16.3850931,21.1649058 16.4679089,21.1318327 16.5175983,21.1152962 C16.7412008,21.040882 16.7826087,21.0243454 17.0144928,20.8920532 C17.0393374,20.8755167 17.0724638,20.883785 17.0973085,20.9003215 L17.942029,21.4046853 C17.9751553,21.4212218 18.0165632,21.4212218 18.0414079,21.4046853 L21.3457557,19.4947175 C21.378882,19.4781809 21.3954452,19.4451079 21.3954452,19.4037667 L21.3954452,15.5920992 C21.3954452,15.5507579 21.378882,15.5176849 21.3457557,15.5011484 L18.0414079,13.5994488 C18.0082816,13.5829123 17.9668737,13.5829123 17.942029,13.5994488 L14.6376811,15.5011484 C14.6045548,15.5176849 14.5879917,15.5590262 14.5879917,15.5920992 L14.5879917,19.4037667 C14.5879917,19.4368397 14.6045548,19.4781809 14.6376811,19.4947175 L15.5403726,20.0156178 C16.0289855,20.2636656 16.3354037,19.9742765 16.3354037,19.6848875 L16.3354037,15.9228295 C16.3354037,15.87322 16.3768116,15.8236105 16.4347826,15.8236105 L16.8571429,15.8236105 C16.9068323,15.8236105 16.9565217,15.8649518 16.9565217,15.9228295 L16.9565217,19.6848875 C16.9565217,20.3380799 16.6004141,20.7184198 15.9792961,20.7184198 C15.7888199,20.7184198 15.6397516,20.7184198 15.2173913,20.5117134 L14.3478261,20.0156178 C14.1325052,19.8915939 14,19.6600827 14,19.4120349 L14,15.6003675 C14,15.3523197 14.1325052,15.1208084 14.3478261,14.9967846 L17.6521739,13.0868167 C17.8592133,12.9710611 18.1407867,12.9710611 18.3478261,13.0868167 L21.6521739,14.9967846 C21.8674948,15.1208084 22,15.3523197 22,15.6003675 L22,19.4120349 C22,19.6600827 21.8674948,19.8915939 21.6521739,20.0156178 L18.3478261,21.9255856 C18.2401656,21.9751952 18.115942,22 18,22 Z M19.0186336,19.3789619 C17.5693582,19.3789619 17.2712215,18.7175011 17.2712215,18.1552595 C17.2712215,18.1056499 17.3126294,18.0560404 17.3706004,18.0560404 L17.8012423,18.0560404 C17.8509317,18.0560404 17.8923395,18.0891134 17.8923395,18.138723 C17.9585921,18.5769408 18.1490683,18.7919155 19.0269151,18.7919155 C19.7225673,18.7919155 20.0207039,18.6348185 20.0207039,18.2627469 C20.0207039,18.0477722 19.9378882,17.8906752 18.853002,17.7831879 C17.9503106,17.692237 17.3871636,17.4937988 17.3871636,16.7744602 C17.3871636,16.1047313 17.9503106,15.7078548 18.89441,15.7078548 C19.9544514,15.7078548 20.4761905,16.0716583 20.5424431,16.8654111 C20.5424431,16.8902159 20.5341615,16.9150207 20.5175983,16.9398255 C20.5010352,16.956362 20.4761905,16.9728985 20.4513458,16.9728985 L20.0207039,16.9728985 C19.9792961,16.9728985 19.9378882,16.9398255 19.9296066,16.8984842 C19.8302278,16.4437299 19.5734989,16.2949012 18.89441,16.2949012 C18.1325051,16.2949012 18.0414079,16.5594855 18.0414079,16.7579237 C18.0414079,16.9977032 18.1490683,17.0721176 19.1759835,17.2044098 C20.194617,17.3367019 20.6749483,17.5268718 20.6749483,18.2379421 C20.6666667,18.9655489 20.0703934,19.3789619 19.0186336,19.3789619 Z" id="Shape" fill="#539E43" fill-rule="nonzero"></path>
                        <path d="M7.99158777,7.41617607 C7.99158777,7.26874839 7.90746581,7.12951116 7.77287065,7.05579729 L4.20609883,5.05733299 C4.14721345,5.02457129 4.07991586,5.00819043 4.01261828,5 L3.97896949,5 C3.91167191,5 3.84437433,5.02457129 3.78548895,5.05733299 L0.218717139,7.05579729 C0.0841219766,7.12951116 0,7.26874839 0,7.41617607 L0.0084121976,12.7890965 C0.0084121976,12.8628104 0.0504731859,12.9365242 0.117770767,12.9692859 C0.185068349,13.010238 0.269190325,13.010238 0.328075708,12.9692859 L2.44794952,11.7898644 C2.58254468,11.7161505 2.66666665,11.5769133 2.66666665,11.4294856 L2.66666665,8.91502433 C2.66666665,8.76759664 2.75078863,8.62835935 2.8853838,8.55464554 L3.78548895,8.046839 C3.85278653,8.00588687 3.9284963,7.98950603 4.00420608,7.98950603 C4.07991586,7.98950603 4.15562564,8.00588687 4.21451102,8.046839 L5.11461618,8.55464554 C5.24921134,8.62835935 5.33333331,8.76759664 5.33333331,8.91502433 L5.33333331,11.4294856 C5.33333331,11.5769133 5.41745529,11.7161505 5.55205045,11.7898644 L7.67192423,12.9692859 C7.73922182,13.010238 7.82334385,13.010238 7.89064144,12.9692859 C7.95793895,12.9365242 8,12.8628104 8,12.7890965 L7.99158777,7.41617607 L7.99158777,7.41617607 Z" id="Path" fill="#333333" fill-rule="nonzero"></path>
                        <path d="M24.6529969,0.024651504 C24.5856993,-0.00821716802 24.5015773,-0.00821716802 24.4426919,0.024651504 C24.3753944,0.0657373441 24.3333334,0.131474688 24.3333334,0.205429201 L24.3333334,5.54658841 C24.3333334,5.59589142 24.3080968,5.64519443 24.2576236,5.6780631 C24.2071504,5.7027146 24.1566772,5.7027146 24.106204,5.6780631 L23.2145111,5.17681585 C23.0799159,5.10286134 22.9200841,5.10286134 22.7854889,5.17681585 L19.2187171,7.190022 C19.084122,7.26397654 19,7.40366836 19,7.55157737 L19,11.5697726 C19,11.7176816 19.084122,11.8573735 19.2187171,11.9313279 L22.7854889,13.9445341 C22.9200841,14.0184886 23.0799159,14.0184886 23.2145111,13.9445341 L26.7812829,11.9313279 C26.915878,11.8573735 27,11.7176816 27,11.5697726 L27,1.55304475 C27,1.39691856 26.915878,1.25722671 26.7812829,1.1832722 L24.6529969,0.024651504 L24.6529969,0.024651504 Z M24.3249212,10.2468085 C24.3249212,10.2878943 24.3080968,10.3207631 24.274448,10.3371974 L23.0546793,11.0274395 C23.0210305,11.0438738 22.9789695,11.0438738 22.9453207,11.0274395 L21.725552,10.3371974 C21.6919033,10.3207631 21.6750788,10.2796772 21.6750788,10.2468085 L21.6750788,8.8663243 C21.6750788,8.82523847 21.6919033,8.79236976 21.725552,8.77593544 L22.9453207,8.08569334 C22.9789695,8.06925902 23.0210305,8.06925902 23.0546793,8.08569334 L24.274448,8.77593544 C24.3080968,8.79236976 24.3249212,8.8334556 24.3249212,8.8663243 L24.3249212,10.2468085 L24.3249212,10.2468085 Z" id="Shape" fill="#333333" fill-rule="nonzero"></path>
                        <g id="Group" transform="translate(28.000000, 5.000000)" fill-rule="nonzero">
                            <path d="M7.75279295,3.83876169 C7.88728095,3.76446308 7.9629304,3.62412125 7.9629304,3.47552402 L7.9629304,2.49313125 C7.9629304,2.34453402 7.87887542,2.20419219 7.75279295,2.12989359 L4.21407757,0.115575621 C4.07958958,0.0412770074 3.91988508,0.0412770074 3.78539708,0.115575621 L0.221465217,2.13814899 C0.0869772211,2.2124476 0.00292222473,2.35278942 0.00292222473,2.50138665 L0.00292222473,6.53827797 C0.00292222473,6.6868752 0.0869772211,6.82721703 0.221465217,6.90151564 L3.76018059,8.882812 C3.89466858,8.95711064 4.05437308,8.95711064 4.18045557,8.882812 L6.32385799,7.710545 C6.39110199,7.67752336 6.43312949,7.60322479 6.43312949,7.52892614 C6.43312949,7.45462757 6.39110199,7.38032893 6.32385799,7.34730729 L2.74311513,5.32473396 C2.67587113,5.28345695 2.63384363,5.21741374 2.63384363,5.14311512 L2.63384363,3.8800387 C2.63384363,3.80574009 2.67587113,3.73144147 2.74311513,3.69841986 L3.86104658,3.07100935 C3.92829058,3.02973234 4.01234558,3.02973234 4.07958958,3.07100935 L5.19752103,3.69841986 C5.26476503,3.73969687 5.30679253,3.80574009 5.30679253,3.8800387 L5.30679253,4.87068688 C5.30679253,4.94498549 5.34882003,5.0192841 5.41606403,5.05230571 C5.48330802,5.09358271 5.56736302,5.09358271 5.63460702,5.05230571 L7.75279295,3.83876169 L7.75279295,3.83876169 Z" id="Path" fill="#333333"></path>
                            <path d="M3.94510158,3.64888746 C3.97031808,3.63237665 4.00394008,3.63237665 4.02915657,3.64888746 L4.71000205,4.03689133 C4.73521855,4.05340213 4.75202955,4.07816834 4.75202955,4.11118994 L4.75202955,4.88719768 C4.75202955,4.92021929 4.73521855,4.94498549 4.71000205,4.96149629 L4.02915657,5.34950016 C4.00394008,5.36601096 3.97031808,5.36601096 3.94510158,5.34950016 L3.2642561,4.96149629 C3.23903961,4.94498549 3.2222286,4.92021929 3.2222286,4.88719768 L3.2222286,4.11118994 C3.2222286,4.07816834 3.23903961,4.05340213 3.2642561,4.03689133 L3.94510158,3.64888746 L3.94510158,3.64888746 Z" id="Path" fill="#539E43"></path>
                        </g>
                        <g id="Group" transform="translate(9.000000, 5.000000)">
                            <g id="path-2-link" fill="url(#linearGradient-2)" fill-rule="nonzero">
                                <path d="M4.21115535,0.061143115 C4.07666735,-0.0137498872 3.91696286,-0.0137498872 3.78247486,0.061143115 L0.243759491,2.08325418 C0.109271496,2.15814718 0.0336219988,2.29961174 0.0336219988,2.44939774 L0.0336219988,6.50194131 C0.0336219988,6.65172732 0.117676996,6.79319187 0.243759491,6.86808487 L3.78247486,8.89019597 C3.91696286,8.96508893 4.07666735,8.96508893 4.21115535,8.89019597 L7.74987069,6.86808487 C7.88435869,6.79319187 7.96000822,6.65172732 7.96000822,6.50194131 L7.96000822,2.44939774 C7.96000822,2.29961174 7.87595324,2.15814718 7.74987069,2.08325418 L4.21115535,0.061143115 L4.21115535,0.061143115 Z" id="path-2"></path>
                            </g>
                            <g id="Clipped">
                                <mask id="mask-4" fill="white">
                                    <use xlink:href="#path-3"></use>
                                </mask>
                                <g id="path-2"></g>
                                <g id="Group" mask="url(#mask-4)">
                                    <path d="M3.77406936,0.061143115 L0.226948492,2.08325418 C0.0924604967,2.15814718 0,2.29961174 0,2.44939774 L0,6.50194131 C0,6.60179865 0.0420274985,6.69333454 0.109271496,6.76822754 L4.09347835,0.0112144471 C3.99261236,-0.00542844245 3.87493536,0.00289300248 3.77406936,0.061143115 L3.77406936,0.061143115 Z" id="Path"></path>
                                    <path d="M4.11869485,8.93180318 C4.15231685,8.92348171 4.18593884,8.90683884 4.21956084,8.89019597 L7.76668175,6.86808487 C7.90116975,6.79319187 7.98522473,6.65172732 7.98522473,6.50194131 L7.98522473,2.44939774 C7.98522473,2.34121896 7.93479171,2.23304018 7.85914218,2.15814718 L4.11869485,8.93180318 L4.11869485,8.93180318 Z" id="Path"></path>
                                    <path d="M7.75827622,2.08325418 L4.20274985,0.061143115 C4.16912785,0.0445002257 4.12710035,0.0278573364 4.09347835,0.0195358918 L0.109271496,6.77654898 C0.142893495,6.81815621 0.184920993,6.85144199 0.226948492,6.87640632 L3.78247486,8.89851737 C3.88334086,8.95676753 4.00101785,8.9734104 4.11028935,8.94012458 L7.85073673,2.16646862 C7.82552022,2.13318284 7.79189818,2.10821851 7.75827622,2.08325418 L7.75827622,2.08325418 Z" id="Path" fill="url(#linearGradient-5)" fill-rule="nonzero"></path>
                                </g>
                            </g>
                            <g id="Clipped">
                                <mask id="mask-7" fill="white">
                                    <use xlink:href="#path-6"></use>
                                </mask>
                                <g id="path-2"></g>
                                <g id="Group" mask="url(#mask-7)">
                                    <g transform="translate(0.000000, -0.737716)" id="Path">
                                        <path d="M7.98522473,7.23965688 L7.98522473,3.18711332 C7.98522473,3.03732732 7.89276422,2.89586275 7.75827622,2.82096975 L4.20274985,0.798858691 C4.16072235,0.773894354 4.11869485,0.757251468 4.06826185,0.748930025 L7.96000822,7.33119278 C7.9768192,7.30622844 7.98522473,7.2729427 7.98522473,7.23965688 L7.98522473,7.23965688 Z" fill="none"></path>
                                        <path d="M0.226948492,2.82096975 C0.0924604967,2.89586275 0,3.03732732 0,3.18711332 L0,7.23965688 C0,7.38944287 0.100865996,7.53090746 0.226948492,7.60580042 L3.78247486,9.6279115 C3.86652986,9.67784018 3.95899036,9.69448306 4.05985635,9.67784018 L0.252164991,2.81264831 L0.226948492,2.82096975 L0.226948492,2.82096975 Z" fill="none"></path>
                                        <polygon fill="url(#linearGradient-8)" fill-rule="evenodd" points="3.70911007 0.0767284101 3.61664956 0.121307578 3.73993023 0.121307578"></polygon>
                                        <path d="M7.76668175,7.60580042 C7.86754771,7.54755034 7.94319724,7.44769303 7.9768192,7.33951426 L4.07666735,0.748930025 C3.97580135,0.732287131 3.86652986,0.740608574 3.77406936,0.798858691 L0.243759491,2.81264831 L4.05145085,9.68616166 C4.10188385,9.67784018 4.16072235,9.66119731 4.21115535,9.63623297 L7.76668175,7.60580042 L7.76668175,7.60580042 Z" fill="url(#linearGradient-9)" fill-rule="evenodd"></path>
                                        <polygon fill="url(#linearGradient-10)" fill-rule="evenodd" points="8.13530613 7.57732197 8.08907586 7.50302337 8.08907586 7.60704151"></polygon>
                                        <path d="M7.76668175,7.60580042 L4.21956084,9.6279115 C4.16912785,9.65287584 4.11869485,9.66951871 4.05985635,9.67784018 L4.12710035,9.80266183 L8.06087418,7.54755034 L8.06087418,7.49762165 L7.96000822,7.33119278 C7.94319724,7.44769303 7.86754771,7.54755034 7.76668175,7.60580042 L7.76668175,7.60580042 Z" fill="url(#linearGradient-11)" fill-rule="evenodd"></path>
                                        <path d="M7.76668175,7.60580042 L4.21956084,9.6279115 C4.16912785,9.65287584 4.11869485,9.66951871 4.05985635,9.67784018 L4.12710035,9.80266183 L8.06087418,7.54755034 L8.06087418,7.49762165 L7.96000822,7.33119278 C7.94319724,7.44769303 7.86754771,7.54755034 7.76668175,7.60580042 L7.76668175,7.60580042 Z" fill="url(#linearGradient-12)" fill-rule="evenodd"></path>
                                    </g>
                                </g>
                            </g>
                        </g>
                    </g>
                </g>
                <text id="Nodejs" font-family="AdobeKaitiStd-Regular, Adobe Kaiti Std" font-size="14" font-weight="normal" fill="#1F1E1E">
                    <tspan x="33.734" y="86">Nodejs</tspan>
                </text>
            </g>
        </g>
    </g>
</svg>