<?xml version="1.0" encoding="UTF-8"?>
<svg width="110px" height="100px" viewBox="0 0 110 100" version="1.1" xmlns="http://www.w3.org/2000/svg" xmlns:xlink="http://www.w3.org/1999/xlink">
    <!-- Generator: Sketch 55.2 (78181) - https://sketchapp.com -->
    <title>Group 21</title>
    <desc>Created with Sketch.</desc>
    <g id="Page-1" stroke="none" stroke-width="1" fill="none" fill-rule="evenodd">
        <g id="Desktop" transform="translate(-644.000000, -295.000000)">
            <g id="Group-21" transform="translate(644.000000, 295.000000)">
                <rect id="Rectangle" fill="#FFFFFF" x="0" y="0" width="110" height="100"></rect>
                <g id="Group-14" transform="translate(31.000000, 8.000000)">
                    <circle id="Oval" fill="#E5F4F3" cx="24" cy="24" r="24"></circle>
                    <g id="react-seeklogo.com" transform="translate(5.000000, 6.000000)" fill-rule="nonzero">
                        <path d="M0,17.4371389 C0,20.3769947 2.80224317,23.1214696 7.2202108,24.6684048 C6.3379839,29.2183691 7.06210022,32.8856094 9.48072774,34.3145808 C11.9668265,35.783274 15.6705006,34.7666312 19.1857901,31.6187731 C22.61239,34.639555 26.0755802,35.8283837 28.4919541,34.3953513 C30.9756219,32.9223943 31.7311,29.0064249 30.8244744,24.3144424 C35.4260217,22.7558859 38,20.4156926 38,17.4371389 C38,14.5654408 35.1925575,12.0810352 30.8341782,10.5439849 C31.8101957,5.65809043 30.9831877,2.07983872 28.4644437,0.591854755 C26.0361105,-0.84265393 22.5327179,0.407666638 19.0557231,3.50756106 C15.4385009,0.217268101 11.9696762,-0.78729963 9.45337401,0.705021207 C7.02740098,2.14361037 6.33512807,5.87749466 7.22021079,10.5116933 C2.95142144,12.0364103 0,14.5769252 0,17.4371389 Z" id="Path" fill="#FFFFFF"></path>
                        <path d="M29.954824,12.0476796 C29.6021161,11.9232689 29.2366386,11.8055562 28.860328,11.6942315 C28.9221791,11.4355489 28.9789463,11.1802153 29.0294197,10.9292231 C29.8579323,6.80785304 29.3162219,3.48764856 27.466442,2.39449597 C25.6927352,1.34630739 22.7919731,2.43921191 19.862343,5.05196196 C19.5806245,5.30320224 19.2981192,5.56920312 19.0157352,5.84797997 C18.8275798,5.6635345 18.6397272,5.48529097 18.4523588,5.31479985 C15.3820208,2.5210774 12.304481,1.34376459 10.4565167,2.44008018 C8.68450451,3.49130771 8.15973958,6.61261621 8.9055219,10.5184692 C8.97754015,10.8957327 9.06172283,11.2809968 9.15692008,11.6727108 C8.72136093,11.7994163 8.30087115,11.9344944 7.89853723,12.0781931 C4.29889535,13.3642878 2,15.3799158 2,17.4706492 C2,19.6299761 4.46786591,21.7958149 8.21717262,23.109074 C8.51305266,23.2127083 8.8200683,23.3106988 9.13646448,23.4037278 C9.03376281,23.8273819 8.94443597,24.2425392 8.86945224,24.6474634 C8.15834763,28.4855292 8.71367494,31.5330967 10.4809666,32.5776882 C12.3064176,33.6564524 15.3700379,32.5476088 18.3532276,29.8753202 C18.5890119,29.6640823 18.8256433,29.4400687 19.0626982,29.2052636 C19.3699561,29.508476 19.6767294,29.7954393 19.9818691,30.0646032 C22.8714352,32.6127911 25.7253553,33.6417538 27.4910129,32.5942475 C29.3146482,31.5123822 29.9073163,28.2385682 29.1378706,24.2554393 C29.0791061,23.9512344 29.0107191,23.6404556 28.9339198,23.3241571 C29.1490667,23.2589746 29.36028,23.1916837 29.566228,23.1217259 C33.4639892,21.7982957 36,19.658815 36,17.4706492 C36,15.3723495 33.6269682,13.3431393 29.954824,12.0476796 L29.954824,12.0476796 L29.954824,12.0476796 Z" id="Path" fill="#53C1DE"></path>
                        <path d="M29.7534172,20.5544952 C29.5740488,20.6152522 29.3900094,20.6739783 29.2024667,20.7309119 C28.7873271,19.3861898 28.2270345,17.9562761 27.5413826,16.4789277 C28.1956801,15.036767 28.7343106,13.6251343 29.137831,12.2891344 C29.4733877,12.3884845 29.7990767,12.4932712 30.112913,12.6038528 C33.1483953,13.673047 35,15.2538677 35,16.4719378 C35,17.7694046 33.0003231,19.4536976 29.7534172,20.5544952 L29.7534172,20.5544952 L29.7534172,20.5544952 Z M28.4061693,23.2859976 C28.7344273,24.9825975 28.7813129,26.5165211 28.5638755,27.7156532 C28.3685089,28.7931516 27.9756151,29.5115435 27.4898258,29.7992587 C26.4560638,30.41149 24.2453723,29.615673 21.8612095,27.516475 C21.5878946,27.275836 21.3125945,27.0188877 21.0364186,26.7469441 C21.9607028,25.712639 22.8844616,24.5102213 23.7860328,23.1748186 C25.3717961,23.0308416 26.8699775,22.7954599 28.2286109,22.4741102 C28.2955238,22.7502952 28.3549629,23.0211634 28.4061693,23.2859976 L28.4061693,23.2859976 L28.4061693,23.2859976 Z M14.7818814,29.6934565 C13.7718834,30.0584176 12.96747,30.0688724 12.4812136,29.7819934 C11.4465174,29.1713752 11.016372,26.8143327 11.6031144,23.6525717 C11.6703192,23.2904782 11.7503109,22.9185276 11.8425058,22.5383324 C13.1862504,22.842357 14.6734546,23.0611304 16.2630132,23.1929801 C17.1706568,24.4997068 18.1210989,25.7008103 19.0788979,26.7525002 C18.8696349,26.9592058 18.6611891,27.1559946 18.4539113,27.3414322 C17.1812251,28.4796877 15.905853,29.2872738 14.7818814,29.6934565 L14.7818814,29.6934565 L14.7818814,29.6934565 Z M10.0501651,20.5465495 C8.45068052,19.9871896 7.1297657,19.2601948 6.22434084,18.4668871 C5.41076056,17.7539913 5,17.0462333 5,16.4719378 C5,15.2498054 6.7807798,13.6909695 9.75080917,12.6314534 C10.1111807,12.5028896 10.4884265,12.3817337 10.879919,12.2679261 C11.2903876,13.6340955 11.828843,15.0624559 12.4786445,16.506827 C11.8204351,17.9726452 11.2743308,19.4237673 10.8598334,20.8059472 C10.5807381,20.7238624 10.3103427,20.6374762 10.0501651,20.5465495 L10.0501651,20.5465495 L10.0501651,20.5465495 Z M11.6362789,9.49974235 C11.0198169,6.27620862 11.4292346,3.84448919 12.4594932,3.23428915 C13.5568983,2.5842415 15.9835676,3.51107166 18.5412017,5.83471867 C18.7046883,5.98323613 18.8688174,6.1386836 19.0334136,6.29950782 C18.0803441,7.34659769 17.1386018,8.53868028 16.2390158,9.83770021 C14.6962844,9.98400724 13.2195316,10.2190304 11.8617739,10.5337488 C11.7764104,10.1824089 11.7007978,9.83722229 11.6362789,9.49974235 L11.6362789,9.49974235 L11.6362789,9.49974235 Z M25.7858264,13.0746161 C25.4612469,12.5009778 25.1280256,11.9409009 24.7883236,11.3961179 C25.834931,11.5314922 26.8376886,11.7111948 27.7793726,11.9311033 C27.4966571,12.8581725 27.1442849,13.8274789 26.7294955,14.8211598 C26.4319497,14.2431605 26.1172375,13.6603818 25.7858264,13.0746161 L25.7858264,13.0746161 L25.7858264,13.0746161 Z M20.0156772,7.32419462 C20.6620339,8.04067486 21.3093248,8.840614 21.9459891,9.70853901 C21.3044201,9.67753316 20.6549104,9.66140294 20.0000292,9.66140294 C19.351337,9.66140294 18.7066152,9.67717471 18.0690167,9.70764288 C18.7063233,8.84778297 19.3592194,8.04891917 20.0156772,7.32419462 L20.0156772,7.32419462 L20.0156772,7.32419462 Z M14.2085683,13.0845331 C13.8843389,13.6597844 13.5754657,14.2393968 13.2825908,14.8200845 C12.8745161,13.8298685 12.5254134,12.8561413 12.2402458,11.915929 C13.1761492,11.7016361 14.1741777,11.5264142 15.2141288,11.3936088 C14.8696388,11.9434101 14.5336734,12.5076092 14.2085683,13.0844137 L14.2085683,13.0845331 L14.2085683,13.0845331 Z M15.2440819,21.6525446 C14.1696234,21.5298952 13.1565892,21.3636944 12.2209193,21.1553157 C12.5106412,20.1983161 12.8674511,19.2037989 13.2841673,18.1922551 C13.5778012,18.7725247 13.8879006,19.352376 14.2141151,19.9288819 L14.2141735,19.9288819 C14.5464604,20.5162009 14.8907169,21.0915118 15.2440819,21.6525446 L15.2440819,21.6525446 L15.2440819,21.6525446 Z M20.054447,25.7207638 C19.3902819,24.987556 18.72781,24.176505 18.0808111,23.3040993 C18.7088922,23.3293102 19.3492349,23.3422145 20.0000292,23.3422145 C20.6686318,23.3422145 21.3295854,23.3268011 21.9801462,23.2971693 C21.3413798,24.1852871 20.6964246,24.9975926 20.054447,25.7207638 L20.054447,25.7207638 L20.054447,25.7207638 Z M26.7428664,18.1406982 C27.1813029,19.1631746 27.5508998,20.1524944 27.8443586,21.0931846 C26.8932743,21.3151841 25.8664021,21.4939906 24.78447,21.6268558 C25.1249896,21.0747244 25.4611301,20.5050291 25.7914316,19.9190244 C26.1255871,19.3261496 26.4428682,18.7323785 26.7428664,18.1406982 L26.7428664,18.1406982 L26.7428664,18.1406982 Z M24.5776007,19.2027235 C24.0648361,20.1124078 23.5384086,20.9808107 23.003982,21.8005245 C22.0305933,21.8717363 21.0249745,21.9084176 20.0000292,21.9084176 C18.9792295,21.9084176 17.9862807,21.8759779 17.0301166,21.8124727 C16.4741448,20.9820057 15.9362733,20.1110338 15.4267784,19.2105496 L15.4268951,19.2105496 C14.9187432,18.3125149 14.4510542,17.4068929 14.0272731,16.5063491 C14.4509374,15.6037142 14.9174002,14.6970767 15.4226328,13.8006549 L15.422516,13.8008342 C15.9290915,12.9020228 16.4622336,12.0352926 17.0130672,11.210023 C17.9886162,11.1345695 18.9889802,11.0951998 19.9999709,11.0951998 L20.0000292,11.0951998 C21.015574,11.0951998 22.0172225,11.1348682 22.9924795,11.2109789 C23.5349053,12.0302146 24.0644274,12.8941369 24.5729881,13.7930678 C25.0873293,14.702095 25.559806,15.6026985 25.9870903,16.4859773 C25.5610906,17.3844301 25.0896648,18.2941146 24.5776007,19.2027235 L24.5776007,19.2027235 L24.5776007,19.2027235 Z M27.468339,3.19163369 C28.5667951,3.8397696 28.9939626,6.45370072 28.3038149,9.88137128 C28.2597901,10.100085 28.2102188,10.3228612 28.1563848,10.5486245 C26.795474,10.2273345 25.3176703,9.98824889 23.7704432,9.83973142 C22.8691054,8.52643327 21.9350704,7.33249869 20.997532,6.29885065 C21.2495937,6.05074407 21.501305,5.81416758 21.7519652,5.59091347 C24.1736716,3.43454277 26.4370877,2.58316615 27.468339,3.19163369 L27.468339,3.19163369 L27.468339,3.19163369 Z" id="Shape" fill="#FFFFFF"></path>
                        <path d="M19.5,14 C20.8806886,14 22,15.1192616 22,16.5 C22,17.8806883 20.8806886,19 19.5,19 C18.1193116,19 17,17.8806883 17,16.5 C17,15.1192616 18.1193116,14 19.5,14" id="Path" fill="#53C1DE"></path>
                    </g>
                </g>
                <text id="React" font-family="AdobeKaitiStd-Regular, Adobe Kaiti Std" font-size="14" font-weight="normal" fill="#1F1E1E">
                    <tspan x="37.829" y="86">React</tspan>
                </text>
            </g>
        </g>
    </g>
</svg>